<?xml version="1.0" encoding="UTF-8"?>
<svg preserveAspectRatio="xMidYMid slice" xmlns="http://www.w3.org/2000/svg" width="34px" height="34px" viewBox="0 0 60 60" fill="none">
  <rect x="0.75" y="0.75" width="58.5" height="58.5" rx="29.25" fill="#F97316" fill-opacity="0.25"></rect>
  <path d="M19.125 20.625C19.125 19.7966 19.7966 19.125 20.625 19.125H39.375C40.2034 19.125 40.875 19.7966 40.875 20.625V25.875C40.875 26.7034 40.2034 27.375 39.375 27.375H20.625C19.7966 27.375 19.125 26.7034 19.125 25.875V20.625Z" stroke="#F97316" stroke-width="1.5" stroke-linecap="round" stroke-linejoin="round"></path>
  <path d="M19.125 34.125C19.125 33.2966 19.7966 32.625 20.625 32.625H39.375C40.2034 32.625 40.875 33.2966 40.875 34.125V39.375C40.875 40.2034 40.2034 40.875 39.375 40.875H20.625C19.7966 40.875 19.125 40.2034 19.125 39.375V34.125Z" stroke="#F97316" stroke-width="1.5" stroke-linecap="round" stroke-linejoin="round"></path>
  <path d="M36.375 19.5V27" stroke="#F97316" stroke-width="1.5" stroke-linecap="round" stroke-linejoin="round"></path>
  <path d="M36.375 33V40.5" stroke="#F97316" stroke-width="1.5" stroke-linecap="round" stroke-linejoin="round"></path>
  <rect x="0.75" y="0.75" width="58.5" height="58.5" rx="29.25" stroke="#F97316" stroke-width="1.5"></rect>
</svg>
