<?xml version="1.0" encoding="UTF-8"?>
<svg preserveAspectRatio="xMidYMid slice" xmlns="http://www.w3.org/2000/svg" width="34px" height="9px" viewBox="0 0 123 34" fill="none">
  <path d="M22.0518 29.3914L14.8302 20.0377C18.6989 15.9728 24.3301 13.2629 26.7803 13.2629V12.9132H15.0881V13.2629C17.7962 13.2629 17.2804 16.8907 15.389 18.9013L10.3596 24.1464C10.3596 24.1464 11.5632 26.0695 12.8528 27.949C15.7329 32.3199 16.1197 33.1066 19.0858 33.1066H27.0382V32.7132C25.1038 32.7132 23.4703 31.402 22.0518 29.3914ZM9.58587 28.1675V0.5L0 2.33576V2.68543C1.76242 3.34106 2.27826 3.95298 2.27826 5.48278V28.1675C2.27826 30.4404 2.23527 32.2762 0.601804 32.757V33.1066H11.3483V32.757C9.8008 32.3199 9.58587 30.5715 9.58587 28.1675Z" fill="white"></path>
  <path d="M47.5982 13.5252C46.4806 12.5199 44.6752 12.2576 43.4716 12.8258C42.182 13.4377 40.8924 13.9623 37.8404 18.6391V12.5199L28.2545 14.3556V14.7053C30.017 15.3609 30.5328 15.9728 30.5328 17.5027V28.1675C30.5328 30.3967 30.4898 32.2762 28.8563 32.757V33.1066H39.6028V32.757C38.0553 32.3199 37.8404 30.5715 37.8404 28.1675V19.4695C39.6028 16.7596 40.9784 16.4536 40.9784 17.0219C40.9784 18.0272 41.5372 18.945 42.3539 19.7318C44.0734 21.1742 46.5666 20.9993 48.0281 19.2947C49.4896 17.6338 49.2747 15.0113 47.5982 13.5252Z" fill="white"></path>
  <path d="M61.5398 29.1728C61.0669 30.2219 60.4651 30.8338 59.7344 30.8338C58.0149 30.8338 58.0579 27.949 58.0579 27.949C58.0579 25.8947 58.0149 23.2285 61.5398 22.4417V29.1728ZM72.0284 30.0907C71.8134 30.8338 70.7388 30.8338 70.7388 30.8338C68.6755 30.9212 68.6755 27.7742 68.6755 27.7742V21.2616C68.6755 16.104 65.5375 12.5199 59.9063 12.5199C59.9063 12.5199 57.8 12.3887 55.8656 13.4378C54.2752 14.3119 53.5014 15.0987 52.9856 15.6669C52.2548 16.4536 52.0399 17.7649 52.4698 18.9013C53.1145 20.4748 54.877 21.2179 56.4245 20.606C58.0149 19.9066 58.7457 18.1583 58.1009 16.5411C57.757 15.7543 57.2842 15.1424 56.5534 14.8801C55.0919 14.3556 56.0376 13.7874 56.0376 13.7874C59.0036 12.2139 61.5398 14.6616 61.5398 19.2073V22.0046C53.8883 23.8404 50.4064 24.6709 50.4064 29.0417C50.4064 32.757 54.1462 33.5 55.7797 33.5C58.8317 33.5 61.024 31.8391 61.5828 29.5662C61.9697 33.5 66.7411 33.5 66.7411 33.5C69.4492 33.5 71.6845 32.2325 72.2863 30.3093L72.0284 30.0907Z" fill="white"></path>
  <path d="M83.651 28.1675V13.3066H88.2505V12.9132H83.651C83.651 5.26424 83.5651 0.980796 87.1329 0.980796C88.6374 0.980796 88.7664 1.94238 87.9496 2.16093C87.2189 2.33576 86.6171 2.72914 86.2302 3.38477C85.3275 4.78345 85.7144 6.5755 87.0469 7.44967C88.3795 8.32384 90.1849 7.93046 91.0446 6.61921C91.6464 5.61391 91.7324 4.21523 91.2166 3.25364C90.3569 1.63642 88.4655 0.631127 86.4451 0.631127C80.8999 0.631127 76.3434 2.68543 76.3434 12.9132H73.5493V13.3066H76.3434V28.1675C76.3434 30.3967 76.3004 32.2762 74.667 32.757V33.1066H85.4135V32.757C83.866 32.3199 83.651 30.5715 83.651 28.1675Z" fill="white"></path>
  <path d="M100.317 28.1675V13.3066H104.916V12.9132H100.317C100.317 5.26424 100.231 0.980796 103.798 0.980796C105.303 0.980796 105.432 1.94238 104.615 2.16093C103.884 2.33576 103.283 2.72914 102.896 3.38477C101.993 4.78345 102.38 6.5755 103.712 7.44967C105.045 8.32384 106.85 7.93046 107.71 6.61921C108.312 5.61391 108.398 4.21523 107.882 3.25364C107.022 1.63642 105.131 0.631127 103.111 0.631127C97.5654 0.631127 93.0089 2.68543 93.0089 12.9132H90.2148V13.3066H93.0089V28.1675C93.0089 30.3967 92.9659 32.2762 91.3324 32.757V33.1066H102.079V32.757C100.531 32.3199 100.317 30.5715 100.317 28.1675Z" fill="white"></path>
  <path d="M120.12 30.3093C117.627 30.3093 116.767 29.1291 116.767 26.6815V13.3066H122.312V12.9132H116.767V6.13841L109.545 7.05629V12.9132H106.837V13.3066H109.545V26.8126C109.545 32.1013 113.414 33.5 116.81 33.5C119.991 33.5 122.484 31.4894 123 29.1728L122.742 28.998C122.226 29.6099 121.367 30.3093 120.12 30.3093Z" fill="white"></path>
</svg>
