<?xml version="1.0" encoding="UTF-8"?>
<svg preserveAspectRatio="xMidYMid slice" xmlns="http://www.w3.org/2000/svg" width="68px" height="68px" viewBox="0 0 60 60" fill="none">
  <path d="M38.2834 0.945054C38.6319 0.923261 38.9792 0.908334 39.3251 0.900153C35.9788 0.0738938 32.4087 -0.205716 28.7211 0.153791C11.6881 1.81436 -1.3989 16.4818 0.12001 32.9803C1.63892 49.4788 16.6782 61.5074 33.7111 59.8468C45.5601 58.6916 55.2525 51.2162 59.5434 41.2187C55.1673 46.4346 48.6489 49.9401 41.204 50.4057C27.1034 51.2874 15.0188 40.9301 14.2123 27.2719C13.4058 13.6137 24.1828 1.82679 38.2834 0.945054Z" fill="white"></path>
  <path d="M56.0239 9.31813C56.5958 8.88839 57.398 9.01712 57.8156 9.60566L59.7532 12.3364C60.1708 12.9249 60.0457 13.7504 59.4738 14.1801L49.3771 21.7667L53.1106 27.0284C53.8936 28.1319 53.659 29.6797 52.5867 30.4854L35.0469 43.6647C34.4035 44.1482 33.501 44.0034 33.0312 43.3412L32.6059 42.7418C32.1361 42.0797 32.2768 41.151 32.9202 40.6676L47.4181 29.774L45.5277 27.1099L31.0299 38.0035C30.3865 38.4869 29.484 38.3421 29.0142 37.68L28.5889 37.0806C28.1191 36.4185 28.2598 35.4898 28.9032 35.0063L43.4011 24.1128L41.6052 21.5818L27.1074 32.4754C26.464 32.9589 25.5615 32.814 25.0917 32.1519L24.6664 31.5525C24.1966 30.8904 24.3373 29.9617 24.9807 29.4783L39.4786 18.5847L37.7772 16.187L23.2794 27.0806C22.636 27.564 21.7336 27.4192 21.2638 26.7571L20.8384 26.1577C20.3686 25.4956 20.5093 24.5669 21.1528 24.0834L38.6925 10.9042C39.7649 10.0984 41.269 10.3398 42.052 11.4433L45.9272 16.9047L56.0239 9.31813Z" fill="white"></path>
</svg>
