<?xml version="1.0" encoding="UTF-8"?>
<svg xmlns="http://www.w3.org/2000/svg" width="64" height="64" viewBox="0 0 64 64" fill="none">
  <rect x="0.75" y="0.75" width="62.5" height="62.5" rx="31.25" fill="#F97316" fill-opacity="0.25"></rect>
  <path d="M24.9167 24.9167L23.6667 19.9167H19.9167M24.9167 24.9167H44.0833L41.3547 36.5135C41.0003 38.0192 39.6568 39.0834 38.11 39.0834H31.2325C29.72 39.0834 28.3971 38.065 28.0101 36.603L24.9167 24.9167Z" stroke="#F97316" stroke-width="1.5" stroke-linecap="round" stroke-linejoin="round"></path>
  <path d="M28.6667 45.3333C29.5871 45.3333 30.3333 44.5871 30.3333 43.6667C30.3333 42.7462 29.5871 42 28.6667 42C27.7462 42 27 42.7462 27 43.6667C27 44.5871 27.7462 45.3333 28.6667 45.3333Z" fill="#F97316"></path>
  <path d="M40.3333 45.3333C41.2538 45.3333 42 44.5871 42 43.6667C42 42.7462 41.2538 42 40.3333 42C39.4129 42 38.6667 42.7462 38.6667 43.6667C38.6667 44.5871 39.4129 45.3333 40.3333 45.3333Z" fill="#F97316"></path>
  <rect x="0.75" y="0.75" width="62.5" height="62.5" rx="31.25" stroke="#F97316" stroke-width="1.5"></rect>
</svg>
